<svg width="14" height="14" viewBox="0 0 14 14" fill="none" xmlns="http://www.w3.org/2000/svg">
<path d="M12.5002 7.91671H7.91683V12.5C7.91683 13.0042 7.50433 13.4167 7.00016 13.4167C6.496 13.4167 6.0835 13.0042 6.0835 12.5V7.91671H1.50016C0.995996 7.91671 0.583496 7.50421 0.583496 7.00004C0.583496 6.49587 0.995996 6.08337 1.50016 6.08337H6.0835V1.50004C6.0835 0.995874 6.496 0.583374 7.00016 0.583374C7.50433 0.583374 7.91683 0.995874 7.91683 1.50004V6.08337H12.5002C13.0043 6.08337 13.4168 6.49587 13.4168 7.00004C13.4168 7.50421 13.0043 7.91671 12.5002 7.91671Z" fill="#00214D"/>
</svg>
