<svg width="22" height="18" viewBox="0 0 22 18" fill="none" xmlns="http://www.w3.org/2000/svg">
<path fill-rule="evenodd" clip-rule="evenodd" d="M0.208496 2C0.208496 1.03167 0.990163 0.25 1.9585 0.25C2.92683 0.25 3.7085 1.03167 3.7085 2C3.7085 2.96833 2.92683 3.75 1.9585 3.75C0.990163 3.75 0.208496 2.96833 0.208496 2ZM0.208496 9C0.208496 8.03167 0.990163 7.25 1.9585 7.25C2.92683 7.25 3.7085 8.03167 3.7085 9C3.7085 9.96833 2.92683 10.75 1.9585 10.75C0.990163 10.75 0.208496 9.96833 0.208496 9ZM1.9585 14.25C0.990163 14.25 0.208496 15.0433 0.208496 16C0.208496 16.9567 1.00183 17.75 1.9585 17.75C2.91516 17.75 3.7085 16.9567 3.7085 16C3.7085 15.0433 2.92683 14.25 1.9585 14.25ZM20.6252 17.1667H6.62516C5.9835 17.1667 5.4585 16.6417 5.4585 16C5.4585 15.3583 5.9835 14.8333 6.62516 14.8333H20.6252C21.2668 14.8333 21.7918 15.3583 21.7918 16C21.7918 16.6417 21.2668 17.1667 20.6252 17.1667ZM6.62516 10.1667H20.6252C21.2668 10.1667 21.7918 9.64167 21.7918 9C21.7918 8.35833 21.2668 7.83333 20.6252 7.83333H6.62516C5.9835 7.83333 5.4585 8.35833 5.4585 9C5.4585 9.64167 5.9835 10.1667 6.62516 10.1667ZM6.62516 3.16667C5.9835 3.16667 5.4585 2.64167 5.4585 2C5.4585 1.35833 5.9835 0.833334 6.62516 0.833334H20.6252C21.2668 0.833334 21.7918 1.35833 21.7918 2C21.7918 2.64167 21.2668 3.16667 20.6252 3.16667H6.62516Z" fill="#FFFFFE"/>
</svg>
