<svg width="18" height="18" viewBox="0 0 18 18" fill="none" xmlns="http://www.w3.org/2000/svg">
<path d="M17.4001 0.613275C17.151 0.363605 16.8128 0.223294 16.4601 0.223294C16.1074 0.223294 15.7692 0.363605 15.5201 0.613275L9.00008 7.11994L2.48008 0.599942C2.23097 0.350271 1.89277 0.209961 1.54008 0.209961C1.18739 0.209961 0.849184 0.350271 0.600075 0.599942C0.0800754 1.11994 0.0800754 1.95994 0.600075 2.47994L7.12007 8.99994L0.600075 15.5199C0.0800754 16.0399 0.0800754 16.8799 0.600075 17.3999C1.12008 17.9199 1.96008 17.9199 2.48008 17.3999L9.00008 10.8799L15.5201 17.3999C16.0401 17.9199 16.8801 17.9199 17.4001 17.3999C17.9201 16.8799 17.9201 16.0399 17.4001 15.5199L10.8801 8.99994L17.4001 2.47994C17.9067 1.97327 17.9067 1.11994 17.4001 0.613275Z" fill="black" fill-opacity="0.54"/>
</svg>
