<svg width="13" height="14" viewBox="0 0 13 14" fill="none" xmlns="http://www.w3.org/2000/svg">
<path fill-rule="evenodd" clip-rule="evenodd" d="M8.72339 0.4675L9.28638 1H11.2687C11.7049 1 12.0617 1.3375 12.0617 1.75C12.0617 2.1625 11.7049 2.5 11.2687 2.5H1.7534C1.31727 2.5 0.960449 2.1625 0.960449 1.75C0.960449 1.3375 1.31727 1 1.7534 1H3.73576L4.29875 0.4675C4.44148 0.3325 4.64765 0.25 4.85381 0.25H8.16833C8.37449 0.25 8.58066 0.3325 8.72339 0.4675ZM1.75339 12.25C1.75339 13.075 2.46705 13.75 3.33929 13.75H9.68285C10.5551 13.75 11.2687 13.075 11.2687 12.25V4.75C11.2687 3.925 10.5551 3.25 9.68285 3.25H3.33929C2.46705 3.25 1.75339 3.925 1.75339 4.75V12.25ZM4.13223 4.75H8.88991C9.32603 4.75 9.68285 5.0875 9.68285 5.5V11.5C9.68285 11.9125 9.32603 12.25 8.88991 12.25H4.13223C3.69611 12.25 3.33928 11.9125 3.33928 11.5V5.5C3.33928 5.0875 3.69611 4.75 4.13223 4.75Z" fill="#888888"/>
</svg>
