<svg width="16" height="14" viewBox="0 0 16 14" fill="none" xmlns="http://www.w3.org/2000/svg">
<path fill-rule="evenodd" clip-rule="evenodd" d="M10.3249 4.39549L14.5892 4.74549C15.3645 4.80382 15.6729 5.72049 15.0826 6.20382L11.8491 8.85382L12.8183 12.7955C12.9945 13.5122 12.1751 14.0788 11.5055 13.6955L7.84917 11.6038L4.19281 13.6872C3.52321 14.0705 2.70383 13.5038 2.88004 12.7872L3.8492 8.85382L0.615745 6.20382C0.0254419 5.72049 0.34262 4.80382 1.11794 4.74549L5.37342 4.40382L7.0386 0.687158C7.33816 0.0121582 8.36018 0.0121582 8.65973 0.687158L10.3249 4.39549ZM4.53642 11.9372L7.84917 10.0455L11.1707 11.9455L10.2897 8.37883L13.2148 5.97883L9.35576 5.66216L7.84917 2.2955L6.35138 5.65383L2.49238 5.97049L5.41747 8.37049L4.53642 11.9372Z" fill="#888888"/>
</svg>
