<svg width="20" height="20" viewBox="0 0 20 20" fill="none" xmlns="http://www.w3.org/2000/svg">
<path fill-rule="evenodd" clip-rule="evenodd" d="M13.2766 6.35366L18.9233 6.84366C19.9499 6.92533 20.3583 8.20866 19.5766 8.88533L15.2949 12.5953L16.5783 18.1137C16.8116 19.117 15.7266 19.9103 14.8399 19.3737L9.99825 16.4453L5.15659 19.362C4.26992 19.8987 3.18492 19.1053 3.41825 18.102L4.70159 12.5953L0.41992 8.88533C-0.361746 8.20866 0.0582537 6.92533 1.08492 6.84366L6.71992 6.36533L8.92492 1.162C9.32159 0.216997 10.6749 0.216997 11.0716 1.162L13.2766 6.35366ZM5.61158 16.912L9.99825 14.2637L14.3966 16.9237L13.2299 11.9303L17.1032 8.57033L11.9932 8.127L9.99825 3.41367L8.01491 8.11533L2.90491 8.55867L6.77824 11.9187L5.61158 16.912Z" fill="#FFFFFE"/>
</svg>
