<svg width="20" height="24" viewBox="0 0 20 24" fill="none" xmlns="http://www.w3.org/2000/svg">
<path fill-rule="evenodd" clip-rule="evenodd" d="M13.1382 0.246722C14.1882 1.25006 15.1215 2.37006 15.9382 3.57172C18.0732 6.73339 19.3332 10.5134 19.3332 14.5851C19.3332 19.7417 15.1565 23.9184 9.99984 23.9184C4.84317 23.9184 0.666504 19.7417 0.666504 14.5851C0.666504 11.6217 1.45984 8.84506 2.84817 6.46506C3.03484 6.12672 3.23317 5.81172 3.44317 5.49672C3.72317 5.06506 4.36484 5.21672 4.49317 5.70672C4.56317 5.96339 4.60984 6.10339 4.7265 6.33672C5.36817 7.88839 6.83817 8.97339 8.63484 8.97339C11.0382 8.97339 12.6132 7.02506 12.6132 4.62172C12.6132 3.32672 12.3798 1.88006 12.1582 0.783389C12.0415 0.223389 12.7298 -0.149945 13.1382 0.246722ZM5.90484 16.7551C5.90484 18.7851 7.58484 20.4184 9.6615 20.4184C12.7532 20.4184 15.2615 17.9101 15.2498 14.8184C15.2498 13.5701 15.1098 12.3334 14.8415 11.1434C14.7482 10.7117 14.2115 10.5717 13.8848 10.8751C12.6598 12.0301 10.8982 12.7651 9.18317 13.1151C7.12984 13.5351 5.90484 14.8651 5.90484 16.7551Z" fill="#FFFFFE"/>
</svg>
