<svg width="20" height="22" viewBox="0 0 20 22" fill="none" xmlns="http://www.w3.org/2000/svg">
<path fill-rule="evenodd" clip-rule="evenodd" d="M19.3269 8.96414L11.4402 15.1008C10.6002 15.7658 9.41024 15.7658 8.57024 15.1125L0.683576 8.97581C0.0885757 8.50914 0.0885757 7.59914 0.683576 7.13247L8.57024 0.984141C9.42191 0.330807 10.6002 0.330807 11.4402 0.984141L19.3269 7.12081C19.9219 7.58747 19.9219 8.49747 19.3269 8.96414ZM9.27066 18.6241C9.69066 18.9508 10.2857 18.9508 10.7057 18.6241L17.8807 13.0358C18.2989 12.7092 18.8858 12.7092 19.304 13.0358L19.3157 13.0475C19.9107 13.5141 19.9107 14.4125 19.3157 14.8791L11.429 21.0158C10.5773 21.6691 9.39899 21.6691 8.55899 21.0158L0.672324 14.8791C0.0773242 14.4125 0.0773242 13.5141 0.672324 13.0475C1.09055 12.7208 1.67744 12.7208 2.09566 13.0475L9.27066 18.6241Z" fill="#FFFFFE"/>
</svg>
