<svg width="20" height="24" viewBox="0 0 20 24" fill="none" xmlns="http://www.w3.org/2000/svg">
<path fill-rule="evenodd" clip-rule="evenodd" d="M16.9998 0.345041L2.99984 0.333374C1.7165 0.333374 0.666504 1.37171 0.666504 2.66671V21.3334C0.666504 22.6167 1.7165 23.6667 2.99984 23.6667H16.9998C18.2832 23.6667 19.3332 22.6167 19.3332 21.3334V2.66671C19.3332 1.37171 18.2832 0.345041 16.9998 0.345041ZM15.8332 21.3334H4.1665C3.52484 21.3334 2.99984 20.8084 2.99984 20.1667V11.9767C2.99984 11.335 3.52484 10.81 4.1665 10.81H15.8332C16.4748 10.81 16.9998 11.335 16.9998 11.9767V20.1667C16.9998 20.8084 16.4748 21.3334 15.8332 21.3334ZM4.1665 8.50004H15.8332C16.4748 8.50004 16.9998 7.97504 16.9998 7.33337V3.83337C16.9998 3.19171 16.4748 2.66671 15.8332 2.66671H4.1665C3.52484 2.66671 2.99984 3.19171 2.99984 3.83337V7.33337C2.99984 7.97504 3.52484 8.50004 4.1665 8.50004ZM6.49984 3.83337C7.1415 3.83337 7.6665 4.35837 7.6665 5.00004V6.16671C7.6665 6.80837 7.1415 7.33337 6.49984 7.33337C5.85817 7.33337 5.33317 6.80837 5.33317 6.16671V5.00004C5.33317 4.35837 5.85817 3.83337 6.49984 3.83337ZM7.6665 13.1667C7.6665 12.525 7.1415 12 6.49984 12C5.85817 12 5.33317 12.525 5.33317 13.1667V16.6667C5.33317 17.3084 5.85817 17.8334 6.49984 17.8334C7.1415 17.8334 7.6665 17.3084 7.6665 16.6667V13.1667Z" fill="#FFFFFE"/>
</svg>
